PathFileType	4	(X/Y/Z)	Run_300 02
DataRate	CameraRate	NumFrames	NumMarkers	Units	OrigDataRate	OrigDataStartFrame	OrigNumFrames
100	100	7	42	mm	100	439	128
Frame#	Time	LASI			RASI			LPSI			RTH1			RTH2			RTH3			LTH1			LTH2			LTH3			RTB1			RTB2			RTB3			LTB1			LTB2			LTB3			RCAL			RTOE			RMT5			LCAL			LTOE			LMT5			LACR			RACR			CLAV			C7			RUA1			RUA2			RUA3			RLEL			RMEL			LUA1			LUA2			LUA3			LLEL			RFAsuperior			RFAradius			RFAulna			LFAsuperior			LFAradius			LFAulna			LMEL			RPSI		
		X1	Y1	Z1	X2	Y2	Z2	X3	Y3	Z3	X4	Y4	Z4	X5	Y5	Z5	X6	Y6	Z6	X7	Y7	Z7	X8	Y8	Z8	X9	Y9	Z9	X10	Y10	Z10	X11	Y11	Z11	X12	Y12	Z12	X13	Y13	Z13	X14	Y14	Z14	X15	Y15	Z15	X16	Y16	Z16	X17	Y17	Z17	X18	Y18	Z18	X19	Y19	Z19	X20	Y20	Z20	X21	Y21	Z21	X22	Y22	Z22	X23	Y23	Z23	X24	Y24	Z24	X25	Y25	Z25	X26	Y26	Z26	X27	Y27	Z27	X28	Y28	Z28	X29	Y29	Z29	X30	Y30	Z30	X31	Y31	Z31	X32	Y32	Z32	X33	Y33	Z33	X34	Y34	Z34	X35	Y35	Z35	X36	Y36	Z36	X37	Y37	Z37	X38	Y38	Z38	X39	Y39	Z39	X40	Y40	Z40	X41	Y41	Z41	X42	Y42	Z42	

439	  4.390000	1293.344689	1029.846114	-495.770843	1271.456119	1045.820917	-247.041999	1119.064011	1088.342749	-433.899973	1252.154833	870.283453	-190.923983	1309.995915	778.453944	-201.171622	1277.511484	640.266992	-223.993090	1199.317127	875.585659	-550.776312	1212.860718	736.792605	-511.166021	1105.261505	647.402367	-513.320322	1401.978505	406.580850	-303.305177	1383.996543	292.646436	-265.686410	1426.990312	234.083602	-332.138969	924.979390	434.186277	-438.833148	856.591517	445.419419	-483.582685	788.585959	400.669489	-428.719978	1348.396102	 90.972467	-341.166721	1566.043537	183.266419	-350.105148	1564.526636	142.736842	-279.191549	649.771484	472.798196	-426.178535	656.384218	218.197171	-357.431556	615.758640	247.305875	-444.247973	1300.138882	1583.487673	-511.732148	1248.509442	1542.881625	-182.540113	1314.755387	1497.982873	-314.486238	1206.918210	1588.677377	-359.868683	1137.442261	1458.516592	-119.698295	1077.168618	1479.535890	-149.239306	1052.014469	1414.142422	-121.443264	984.717196	1359.007874	-121.274053	974.341642	1372.597836	-214.114107	1259.960990	1482.802832	-618.650368	1174.930708	1443.540268	-615.436131	1211.959233	1375.065664	-656.165983	1192.847790	1304.696177	-675.737509	1058.253734	1311.148000	-124.552900	1198.315565	1225.744221	-182.739876	1152.955493	1172.721986	-168.130800	1269.966708	1281.363745	-635.490439	1386.543899	1293.592821	-498.790864	1391.800713	1223.862538	-514.021928	1135.812845	1292.301144	-601.756337	1104.686054	1091.218422	-340.741430	
440	  4.400000	1292.801707	1023.108041	-496.849888	1271.399379	1039.071631	-246.834954	1118.157571	1080.248634	-433.325784	1251.876271	864.300480	-190.166269	1312.102801	774.349256	-200.649251	1281.153710	634.034997	-226.058255	1201.126597	868.230940	-550.821599	1218.294695	729.713320	-512.709990	1112.677078	637.979552	-514.723051	1398.723759	396.317969	-304.377287	1376.940575	283.233006	-266.211913	1417.637775	223.166736	-332.859819	931.079970	431.797530	-440.986573	863.339394	448.542980	-484.939768	792.804375	407.317616	-430.444796	1334.055002	 86.737730	-340.802829	1554.440284	167.360513	-351.465312	1551.084567	126.517779	-280.759618	659.268302	488.766354	-424.261809	650.631273	237.814098	-363.060561	610.154820	266.919756	-449.942739	1298.780168	1574.560531	-511.440863	1250.180671	1533.194270	-181.209147	1314.855008	1488.998966	-314.262892	1207.001635	1580.484620	-358.073004	1141.391205	1445.270264	-116.859783	1079.740202	1465.097312	-143.901796	1056.987029	1398.114228	-117.754059	990.971025	1342.111846	-116.832942	978.719774	1356.382884	-209.120749	1254.404102	1475.389867	-616.344195	1169.328750	1436.572665	-612.695373	1204.390817	1367.282831	-654.101418	1183.645866	1297.709070	-673.459152	1064.907735	1294.978106	-121.151836	1205.105942	1211.767577	-181.866896	1160.602551	1158.107499	-167.246093	1260.697340	1270.542649	-635.800364	1381.820403	1274.915821	-501.763864	1382.893871	1205.574489	-519.121966	1128.041015	1286.129946	-598.161397	1104.357341	1082.977422	-340.209356	
441	  4.410000	1291.872517	1014.606011	-497.465195	1271.368098	1031.120006	-246.404717	1117.092800	1071.421784	-432.959055	1251.987588	858.083434	-189.110626	1314.291941	770.067471	-201.838281	1284.504855	627.497305	-227.701835	1202.216819	860.109262	-551.002983	1223.730133	721.645113	-514.682071	1120.206196	627.558574	-516.691462	1395.219715	385.138848	-304.680794	1367.820226	273.072176	-266.944648	1406.706275	211.341995	-333.562068	938.349227	428.537926	-443.385534	871.586515	450.405807	-486.359701	798.849189	413.025475	-432.046394	1316.082317	 86.091094	-340.947489	1540.556109	146.505036	-352.498561	1533.896169	104.897351	-282.378783	670.302173	503.067729	-421.965998	649.202195	256.373172	-369.035244	608.874804	285.475791	-455.983180	1297.077870	1564.534631	-511.298357	1251.668302	1522.325177	-180.205435	1314.985080	1478.885169	-314.331489	1207.136600	1571.220439	-356.551349	1145.483185	1430.710914	-114.085037	1082.477511	1449.184527	-138.462918	1062.253263	1380.670298	-114.079638	997.516815	1323.754865	-112.066898	983.499178	1338.605544	-203.900982	1248.323717	1466.945215	-613.477959	1163.263868	1428.491664	-609.489824	1196.413007	1358.539131	-651.643812	1173.984473	1289.860545	-670.766421	1071.901504	1277.296846	-117.534336	1212.183063	1196.444903	-181.071499	1168.594664	1142.020678	-166.449278	1250.776508	1258.937792	-635.941738	1376.340829	1254.829824	-505.326779	1373.065639	1186.177161	-524.766724	1119.953746	1278.988376	-594.190416	1104.049536	1074.287258	-339.983703	
442	  4.420000	1290.228852	1004.668046	-497.634686	1270.838732	1022.019297	-245.722027	1115.392574	1062.146156	-432.845215	1252.232894	851.331513	-188.716471	1315.767202	765.247035	-203.471387	1287.817040	621.036197	-228.413193	1202.390328	851.090471	-551.005383	1228.649258	712.509779	-517.072267	1127.718094	616.148573	-519.098668	1392.457816	374.746744	-304.576245	1358.207656	263.863382	-268.168692	1395.111835	200.411783	-334.864958	946.667537	424.544920	-445.931046	881.111448	451.047954	-487.829357	806.570621	417.844693	-433.679233	1295.593284	 88.510187	-341.928731	1524.573006	123.536678	-353.647948	1514.076419	 82.081145	-283.911310	682.334841	515.725409	-419.761020	652.508827	273.255201	-375.196966	612.330452	302.354784	-462.210650	1294.953406	1553.754955	-511.473167	1253.042828	1510.426405	-179.345475	1315.334130	1467.584697	-314.781026	1207.523168	1560.837801	-355.372748	1149.741362	1415.048425	-111.364919	1085.471399	1431.961567	-133.031286	1067.904236	1361.982657	-110.472140	1004.478704	1304.103189	-107.018452	988.633676	1319.429475	-198.445399	1241.756396	1457.623338	-610.050967	1156.780525	1419.443455	-605.826498	1188.036046	1348.910823	-648.680153	1163.950398	1281.341131	-667.705312	1079.351831	1258.337180	-113.830629	1219.540175	1179.959099	-180.350160	1176.950017	1124.636244	-165.682361	1240.306479	1246.676668	-635.975827	1369.903402	1233.260784	-509.520761	1362.251061	1165.658982	-530.904501	1111.888548	1270.971097	-590.023978	1103.130250	1065.447620	-340.047620	
443	  4.430000	1287.557345	994.081477	-497.645631	1269.206687	1012.188831	-244.946103	1112.649974	1052.611328	-433.050300	1252.009514	844.549421	-188.849588	1316.226876	760.190109	-204.027513	1291.708265	615.421821	-228.230286	1201.699904	841.029005	-550.661270	1232.737193	702.521238	-519.724586	1135.168702	603.789664	-521.510536	1390.797293	366.663238	-304.855540	1349.604395	257.505215	-269.855052	1382.614803	192.505215	-337.148974	956.126674	420.090626	-448.327276	891.907946	450.642661	-489.307051	815.977340	421.771134	-435.390281	1273.229576	 92.415197	-343.463412	1505.752019	103.182467	-355.734189	1492.170352	 64.481942	-285.353659	695.390790	526.730838	-418.177959	660.412094	287.887222	-381.337672	620.382747	316.983759	-468.417096	1292.527197	1542.658789	-512.001943	1254.390527	1497.723218	-178.250659	1316.055863	1455.350681	-315.401314	1208.269057	1549.459267	-354.368552	1154.086464	1398.386359	-108.680260	1088.669090	1413.468347	-127.667429	1074.020686	1342.100044	-107.011187	1011.948178	1283.332713	-101.730154	994.109461	1299.044872	-192.743471	1234.859970	1447.456252	-606.396539	1149.883320	1409.660721	-601.792430	1179.270716	1338.492508	-645.040306	1153.594485	1272.367467	-664.281782	1087.310891	1238.177739	-110.095919	1227.245470	1162.641024	-179.788116	1185.786891	1106.336802	-164.953000	1229.305956	1233.835938	-635.848133	1362.347390	1210.295031	-514.276255	1350.319596	1144.043033	-537.473369	1103.787302	1262.294869	-585.555659	1101.148971	1056.447187	-340.390959	
444	  4.440000	1283.898940	983.836386	-497.679265	1266.313853	1002.466438	-244.231346	1108.893150	1042.900640	-433.551266	1250.852331	838.638729	-188.577813	1315.886545	755.369554	-202.798600	1296.300389	611.189322	-227.519744	1200.475103	830.060019	-550.114143	1236.060587	692.473036	-522.373735	1142.618100	590.804338	-523.300401	1389.228877	361.374163	-306.355623	1341.995246	254.783907	-271.749269	1368.001854	188.663305	-340.271012	966.997424	415.483393	-450.134248	904.159252	449.281898	-490.688603	827.209526	424.689135	-437.032105	1249.040008	 96.354866	-345.059590	1483.414459	 89.000200	-358.959160	1468.065000	 55.798731	-286.749322	709.810916	535.945136	-417.747843	672.266403	299.740848	-387.066813	632.386138	328.834331	-474.211970	1290.105342	1531.678901	-512.782631	1255.786186	1484.531464	-176.596822	1317.146042	1442.986508	-315.718862	1209.301167	1537.746169	-353.143492	1158.402642	1380.554578	-106.126385	1091.950187	1393.619950	-122.287040	1080.571869	1320.997308	-103.830239	1019.953118	1261.607557	-96.313519	999.990683	1277.556460	-186.856790	1227.939655	1436.524779	-603.107510	1142.621518	1399.540716	-597.552874	1170.168802	1327.514961	-640.660824	1142.932742	1263.186636	-660.473045	1095.764132	1216.817774	-106.322162	1235.461416	1144.994706	-179.563928	1195.304567	1087.698750	-164.343599	1217.661189	1220.476393	-635.407795	1353.554282	1186.315414	-519.467467	1337.092265	1121.588079	-544.443115	1095.386952	1253.292337	-580.560133	1098.169728	1047.204558	-340.984774	
445	  4.450000	1279.643371	974.693833	-497.734282	1262.669259	993.805327	-243.529656	1104.580907	1033.180283	-434.188160	1248.860811	833.876509	-187.442752	1315.062075	750.809528	-200.402770	1300.633278	607.959823	-226.781429	1199.151980	818.903313	-549.699896	1239.071803	683.527569	-524.787878	1150.269356	578.064549	-524.073336	1385.733868	357.989989	-309.318997	1333.420643	254.546129	-273.552908	1350.211416	187.777823	-343.569894	979.541075	410.969309	-451.019018	918.077239	446.905503	-491.890122	840.419709	426.432234	-438.401243	1222.931043	 99.535663	-346.428615	1457.836705	 81.274965	-362.421420	1441.679997	 54.274416	-287.990976	725.740828	543.141301	-418.880448	687.276037	308.333228	-391.879179	647.544899	337.423660	-479.090065	1287.921861	1521.131306	-513.531897	1257.253191	1471.270835	-174.363575	1318.399489	1431.559403	-315.347507	1210.446455	1526.910907	-351.298870	1162.780257	1361.352766	-104.012032	1095.412095	1372.513589	-116.713862	1087.439522	1298.880889	-101.088282	1028.590719	1239.112568	-91.065529	1006.245176	1255.031047	-180.955305	1221.319122	1425.315517	-600.599500	1135.193616	1389.694608	-593.227427	1160.834926	1316.513761	-635.726427	1132.005097	1254.119449	-656.281636	1104.868453	1194.623518	-102.686713	1244.440366	1127.667375	-179.838664	1205.741709	1069.368264	-163.954502	1205.321385	1206.875585	-634.508333	1343.396872	1161.967857	-524.924140	1322.407463	1098.952976	-551.777888	1086.728854	1244.335027	-575.022606	1094.683622	1037.881830	-341.736787	
